<svg width="694" height="648" viewBox="0 0 694 648" fill="none" xmlns="http://www.w3.org/2000/svg">
<g id="Mainview">
<g id="Contrast Checker Colors">
<g id="Foreground Color">
<rect width="694" height="130" fill="#FF0000"/>
<g id="color label">
<g id="Foreground hex">
<path id="Foreground" d="M22.64 30.792V31.96H19.088V37H17.696V25.8H23.04V26.968H19.088V30.792H22.64ZM31.9366 34.44C31.9366 35.336 31.7126 35.9867 31.2646 36.392C30.8273 36.7973 30.1446 37 29.2166 37H28.6886C27.7606 37 27.0726 36.7973 26.6246 36.392C26.1873 35.9867 25.9686 35.336 25.9686 34.44V31.56C25.9686 30.664 26.1873 30.0133 26.6246 29.608C27.0726 29.2027 27.7606 29 28.6886 29H29.2166C30.1446 29 30.8273 29.2027 31.2646 29.608C31.7126 30.0133 31.9366 30.664 31.9366 31.56V34.44ZM30.5766 31.24C30.5766 30.9093 30.4753 30.6533 30.2726 30.472C30.07 30.2907 29.7713 30.2 29.3766 30.2H28.5286C28.134 30.2 27.8353 30.2907 27.6326 30.472C27.43 30.6533 27.3286 30.9093 27.3286 31.24V34.76C27.3286 35.0907 27.43 35.3467 27.6326 35.528C27.8353 35.7093 28.134 35.8 28.5286 35.8H29.3766C29.7713 35.8 30.07 35.7093 30.2726 35.528C30.4753 35.3467 30.5766 35.0907 30.5766 34.76V31.24ZM36.0493 35.8V30.2H34.8813V29H37.3293V29.432C37.6813 29.144 38.1079 29 38.6093 29H40.2573V30.28H38.4493C38.1079 30.28 37.8519 30.392 37.6813 30.616C37.5106 30.8293 37.4199 31.048 37.4093 31.272V35.8H39.1533V37H34.8813V35.8H36.0493ZM46.1459 37C45.2072 37 44.5192 36.8027 44.0819 36.408C43.6445 36.0027 43.4259 35.3467 43.4259 34.44V31.56C43.4259 30.6427 43.6232 29.9867 44.0179 29.592C44.4125 29.1973 45.0685 29 45.9859 29H46.7379C47.4952 29 48.0659 29.2133 48.4499 29.64C48.8445 30.056 49.0419 30.6693 49.0419 31.48V33.56H44.7859V34.76C44.7859 35.0907 44.8872 35.3467 45.0899 35.528C45.2925 35.7093 45.5912 35.8 45.9859 35.8H48.5299V37H46.1459ZM47.7139 31.16C47.7139 30.8827 47.6232 30.6533 47.4419 30.472C47.2605 30.2907 47.0312 30.2 46.7539 30.2H45.8259C45.4419 30.2 45.1699 30.2907 45.0099 30.472C44.8605 30.6427 44.7859 30.8987 44.7859 31.24V32.36H47.7139V31.16ZM58.0345 37.56C58.0345 38.2853 57.8158 38.824 57.3785 39.176C56.9518 39.5387 56.2798 39.72 55.3625 39.72H52.0345V38.52H55.5225C55.9065 38.52 56.1945 38.4453 56.3865 38.296C56.5785 38.1467 56.6745 37.9547 56.6745 37.72V37.208C56.6745 36.9627 56.5785 36.7707 56.3865 36.632C56.1945 36.4827 55.9065 36.408 55.5225 36.408H52.7545V34.2C52.4025 34.008 52.1412 33.7307 51.9705 33.368C51.7998 33.0053 51.7145 32.536 51.7145 31.96V31.56C51.7145 30.664 51.9332 30.0133 52.3705 29.608C52.8185 29.2027 53.5065 29 54.4345 29H57.7945V31.96C57.7945 32.76 57.5758 33.3893 57.1385 33.848C56.7012 34.296 56.1198 34.52 55.3945 34.52H54.1145V35.208H55.3625C56.2798 35.208 56.9518 35.3893 57.3785 35.752C57.8158 36.104 58.0345 36.6427 58.0345 37.368V37.56ZM55.3945 33.32C55.7252 33.32 55.9758 33.2133 56.1465 33C56.3172 32.7867 56.4132 32.5627 56.4345 32.328V30.2H54.2745C53.8798 30.2 53.5812 30.2907 53.3785 30.472C53.1758 30.6533 53.0745 30.9093 53.0745 31.24V32.28C53.0745 32.6107 53.1758 32.8667 53.3785 33.048C53.5812 33.2293 53.8798 33.32 54.2745 33.32H55.3945ZM61.9711 35.8V30.2H60.8031V29H63.2511V29.432C63.6031 29.144 64.0298 29 64.5311 29H66.1791V30.28H64.3711C64.0298 30.28 63.7738 30.392 63.6031 30.616C63.4325 30.8293 63.3418 31.048 63.3311 31.272V35.8H65.0751V37H60.8031V35.8H61.9711ZM75.1398 34.44C75.1398 35.336 74.9158 35.9867 74.4678 36.392C74.0304 36.7973 73.3478 37 72.4198 37H71.8918C70.9638 37 70.2758 36.7973 69.8278 36.392C69.3904 35.9867 69.1718 35.336 69.1718 34.44V31.56C69.1718 30.664 69.3904 30.0133 69.8278 29.608C70.2758 29.2027 70.9638 29 71.8918 29H72.4198C73.3478 29 74.0304 29.2027 74.4678 29.608C74.9158 30.0133 75.1398 30.664 75.1398 31.56V34.44ZM73.7798 31.24C73.7798 30.9093 73.6784 30.6533 73.4758 30.472C73.2731 30.2907 72.9744 30.2 72.5798 30.2H71.7318C71.3371 30.2 71.0384 30.2907 70.8358 30.472C70.6331 30.6533 70.5318 30.9093 70.5318 31.24V34.76C70.5318 35.0907 70.6331 35.3467 70.8358 35.528C71.0384 35.7093 71.3371 35.8 71.7318 35.8H72.5798C72.9744 35.8 73.2731 35.7093 73.4758 35.528C73.6784 35.3467 73.7798 35.0907 73.7798 34.76V31.24ZM82.3564 36.632C82.0044 36.8773 81.5777 37 81.0764 37H80.5324C79.6684 37 79.023 36.7973 78.5964 36.392C78.1804 35.9867 77.9724 35.336 77.9724 34.44V29H79.3324V34.76C79.3324 35.08 79.423 35.336 79.6044 35.528C79.7964 35.7093 80.0524 35.8 80.3724 35.8H81.2364C81.5777 35.8 81.8284 35.7147 81.9884 35.544C82.159 35.3733 82.255 35.1813 82.2764 34.968V29H83.6364V37H82.3564V36.632ZM87.797 29V29.384C88.1277 29.128 88.5543 29 89.077 29H89.813C90.677 29 91.317 29.2027 91.733 29.608C92.1597 30.0133 92.373 30.664 92.373 31.56V37H91.013V31.24C91.013 30.92 90.917 30.6693 90.725 30.488C90.5437 30.296 90.293 30.2 89.973 30.2H88.917C88.565 30.2 88.3037 30.296 88.133 30.488C87.9623 30.6693 87.877 30.8667 87.877 31.08V37H86.517V29H87.797ZM99.7656 36.632C99.4136 36.8773 98.987 37 98.4856 37H97.8296C96.891 37 96.203 36.8027 95.7656 36.408C95.3283 36.0027 95.1096 35.3467 95.1096 34.44V31.56C95.1096 30.664 95.3283 30.0133 95.7656 29.608C96.2136 29.2027 96.9016 29 97.8296 29H99.6856V25.8H101.046V37H99.7656V36.632ZM98.6456 35.8C98.9976 35.8 99.259 35.7093 99.4296 35.528C99.6003 35.336 99.6856 35.1333 99.6856 34.92V30.2H97.6696C97.275 30.2 96.9763 30.2907 96.7736 30.472C96.571 30.6533 96.4696 30.9093 96.4696 31.24V34.76C96.4696 35.0907 96.571 35.3467 96.7736 35.528C96.9763 35.7093 97.275 35.8 97.6696 35.8H98.6456Z" fill="black"/>
<path id="#FF0000" d="M220.713 37V32.68H218.793V37H216.873V32.68H215.193V30.88H216.873V26.08H215.193V24.28H216.873V20.2H218.793V24.28H220.713V20.2H222.633V24.28H224.313V26.08H222.633V30.88H224.313V32.68H222.633V37H220.713ZM218.793 30.88H220.713V26.08H218.793V30.88ZM236.194 27.688V29.44H230.866V37H228.778V20.2H236.794V21.952H230.866V27.688H236.194ZM249.155 27.688V29.44H243.827V37H241.739V20.2H249.755V21.952H243.827V27.688H249.155ZM262.908 32.92C262.908 34.248 262.54 35.264 261.804 35.968C261.084 36.656 260.108 37 258.876 37H258.396C257.164 37 256.18 36.656 255.444 35.968C254.724 35.264 254.364 34.248 254.364 32.92V24.28C254.364 22.936 254.724 21.92 255.444 21.232C256.164 20.544 257.148 20.2 258.396 20.2H258.876C260.124 20.2 261.108 20.544 261.828 21.232C262.548 21.92 262.908 22.936 262.908 24.28V32.92ZM260.868 23.824C260.868 23.328 260.676 22.904 260.292 22.552C259.924 22.184 259.452 22 258.876 22H258.396C257.82 22 257.34 22.184 256.956 22.552C256.588 22.904 256.404 23.328 256.404 23.824V30.328L260.868 23.824ZM256.404 33.376C256.404 33.872 256.588 34.304 256.956 34.672C257.34 35.024 257.82 35.2 258.396 35.2H258.876C259.452 35.2 259.924 35.024 260.292 34.672C260.676 34.304 260.868 33.872 260.868 33.376V26.896L256.404 33.376ZM275.869 32.92C275.869 34.248 275.501 35.264 274.765 35.968C274.045 36.656 273.069 37 271.837 37H271.357C270.125 37 269.141 36.656 268.405 35.968C267.685 35.264 267.325 34.248 267.325 32.92V24.28C267.325 22.936 267.685 21.92 268.405 21.232C269.125 20.544 270.109 20.2 271.357 20.2H271.837C273.085 20.2 274.069 20.544 274.789 21.232C275.509 21.92 275.869 22.936 275.869 24.28V32.92ZM273.829 23.824C273.829 23.328 273.637 22.904 273.253 22.552C272.885 22.184 272.413 22 271.837 22H271.357C270.781 22 270.301 22.184 269.917 22.552C269.549 22.904 269.365 23.328 269.365 23.824V30.328L273.829 23.824ZM269.365 33.376C269.365 33.872 269.549 34.304 269.917 34.672C270.301 35.024 270.781 35.2 271.357 35.2H271.837C272.413 35.2 272.885 35.024 273.253 34.672C273.637 34.304 273.829 33.872 273.829 33.376V26.896L269.365 33.376ZM288.83 32.92C288.83 34.248 288.462 35.264 287.726 35.968C287.006 36.656 286.03 37 284.798 37H284.318C283.086 37 282.102 36.656 281.366 35.968C280.646 35.264 280.286 34.248 280.286 32.92V24.28C280.286 22.936 280.646 21.92 281.366 21.232C282.086 20.544 283.07 20.2 284.318 20.2H284.798C286.046 20.2 287.03 20.544 287.75 21.232C288.47 21.92 288.83 22.936 288.83 24.28V32.92ZM286.79 23.824C286.79 23.328 286.598 22.904 286.214 22.552C285.846 22.184 285.374 22 284.798 22H284.318C283.742 22 283.262 22.184 282.878 22.552C282.51 22.904 282.326 23.328 282.326 23.824V30.328L286.79 23.824ZM282.326 33.376C282.326 33.872 282.51 34.304 282.878 34.672C283.262 35.024 283.742 35.2 284.318 35.2H284.798C285.374 35.2 285.846 35.024 286.214 34.672C286.598 34.304 286.79 33.872 286.79 33.376V26.896L282.326 33.376ZM301.791 32.92C301.791 34.248 301.423 35.264 300.687 35.968C299.967 36.656 298.991 37 297.759 37H297.279C296.047 37 295.063 36.656 294.327 35.968C293.607 35.264 293.247 34.248 293.247 32.92V24.28C293.247 22.936 293.607 21.92 294.327 21.232C295.047 20.544 296.031 20.2 297.279 20.2H297.759C299.007 20.2 299.991 20.544 300.711 21.232C301.431 21.92 301.791 22.936 301.791 24.28V32.92ZM299.751 23.824C299.751 23.328 299.559 22.904 299.175 22.552C298.807 22.184 298.335 22 297.759 22H297.279C296.703 22 296.223 22.184 295.839 22.552C295.471 22.904 295.287 23.328 295.287 23.824V30.328L299.751 23.824ZM295.287 33.376C295.287 33.872 295.471 34.304 295.839 34.672C296.223 35.024 296.703 35.2 297.279 35.2H297.759C298.335 35.2 298.807 35.024 299.175 34.672C299.559 34.304 299.751 33.872 299.751 33.376V26.896L295.287 33.376Z" fill="black"/>
</g>
<g id="rgb values">
<g id="value r">
<path id="R" d="M18.512 68.36V73H17.12V61.8H20.128C21.0347 61.8 21.7173 62.0027 22.176 62.408C22.6453 62.8027 22.88 63.432 22.88 64.296V65.832C22.88 67.0373 22.4 67.7893 21.44 68.088L23.664 73H22.144L20.08 68.36H18.512ZM21.488 64.152C21.488 63.7467 21.392 63.4533 21.2 63.272C21.0187 63.0907 20.7253 63 20.32 63H18.512V67.16H20.32C20.7253 67.16 21.0187 67.0693 21.2 66.888C21.392 66.696 21.488 66.3973 21.488 65.992V64.152Z" fill="black"/>
<path id="255" d="M54.3181 67.944C54.6595 67.4533 54.8888 67.1067 55.0061 66.904C55.1341 66.6907 55.2195 66.4773 55.2621 66.264C55.3048 66.0507 55.3261 65.7413 55.3261 65.336V64.216C55.3261 63.8853 55.2035 63.6027 54.9581 63.368C54.7128 63.1333 54.3928 63.016 53.9981 63.016H52.0781V61.8H53.8381C54.7661 61.8 55.4755 62.0293 55.9661 62.488C56.4675 62.936 56.7181 63.6133 56.7181 64.52V65.192C56.7181 65.7253 56.6808 66.1573 56.6061 66.488C56.5315 66.8187 56.4248 67.112 56.2861 67.368C56.1475 67.624 55.9181 67.9813 55.5981 68.44L53.2301 71.784H57.0381V73H51.7581V71.592L54.3181 67.944ZM65.4388 70.472C65.4388 71.3573 65.2254 72.0027 64.7988 72.408C64.3721 72.8027 63.6788 73 62.7188 73H60.6228V71.8H62.8628C63.2681 71.8 63.5668 71.7093 63.7588 71.528C63.9508 71.336 64.0468 71.0373 64.0468 70.632V68.6C64.0468 68.248 63.9401 67.9707 63.7268 67.768C63.5134 67.5547 63.2308 67.448 62.8788 67.448H60.7828V61.8H65.1988V63H62.1428V66.248H62.7988C63.6201 66.248 64.2654 66.4507 64.7348 66.856C65.2041 67.2613 65.4388 67.8907 65.4388 68.744V70.472ZM74.0794 70.472C74.0794 71.3573 73.866 72.0027 73.4394 72.408C73.0127 72.8027 72.3194 73 71.3594 73H69.2634V71.8H71.5034C71.9087 71.8 72.2074 71.7093 72.3994 71.528C72.5914 71.336 72.6874 71.0373 72.6874 70.632V68.6C72.6874 68.248 72.5807 67.9707 72.3674 67.768C72.154 67.5547 71.8714 67.448 71.5194 67.448H69.4234V61.8H73.8394V63H70.7834V66.248H71.4394C72.2607 66.248 72.906 66.4507 73.3754 66.856C73.8447 67.2613 74.0794 67.8907 74.0794 68.744V70.472Z" fill="black"/>
</g>
<circle id="circle a" cx="103" cy="68" r="1.5" stroke="black"/>
<g id="value g">
<path id="G" d="M134.384 73C133.456 73 132.741 72.776 132.24 72.328C131.749 71.8693 131.504 71.1867 131.504 70.28V64.52C131.504 63.6133 131.749 62.936 132.24 62.488C132.741 62.0293 133.456 61.8 134.384 61.8H136.64V63.016H134.224C133.829 63.016 133.509 63.1333 133.264 63.368C133.019 63.6027 132.896 63.8853 132.896 64.216V70.584C132.896 70.9147 133.019 71.1973 133.264 71.432C133.509 71.6667 133.829 71.784 134.224 71.784H135.792V68.312H134.4V67.112H137.12V73H134.384Z" fill="black"/>
<path id="0" d="M188.527 70.28C188.527 71.1653 188.282 71.8427 187.791 72.312C187.311 72.7707 186.661 73 185.839 73H185.519C184.698 73 184.042 72.7707 183.551 72.312C183.071 71.8427 182.831 71.1653 182.831 70.28V64.52C182.831 63.624 183.071 62.9467 183.551 62.488C184.031 62.0293 184.687 61.8 185.519 61.8H185.839C186.671 61.8 187.327 62.0293 187.807 62.488C188.287 62.9467 188.527 63.624 188.527 64.52V70.28ZM187.167 64.216C187.167 63.8853 187.039 63.6027 186.783 63.368C186.538 63.1227 186.223 63 185.839 63H185.519C185.135 63 184.815 63.1227 184.559 63.368C184.314 63.6027 184.191 63.8853 184.191 64.216V68.552L187.167 64.216ZM184.191 70.584C184.191 70.9147 184.314 71.2027 184.559 71.448C184.815 71.6827 185.135 71.8 185.519 71.8H185.839C186.223 71.8 186.538 71.6827 186.783 71.448C187.039 71.2027 187.167 70.9147 187.167 70.584V66.264L184.191 70.584Z" fill="black"/>
</g>
<circle id="circle b" cx="217" cy="68" r="1.5" stroke="black"/>
<g id="value b">
<path id="B" d="M251.28 70.472C251.28 71.3893 251.067 72.04 250.64 72.424C250.224 72.808 249.531 73 248.56 73H245.36V61.8H248.368C249.317 61.8 250.011 61.992 250.448 62.376C250.896 62.76 251.12 63.4 251.12 64.296V65.208C251.12 66.0293 250.827 66.648 250.24 67.064C250.933 67.448 251.28 68.104 251.28 69.032V70.472ZM249.728 64.152C249.728 63.7467 249.632 63.4533 249.44 63.272C249.259 63.0907 248.965 63 248.56 63H246.752V66.536H248.56C248.891 66.536 249.168 66.4293 249.392 66.216C249.616 66.0027 249.728 65.72 249.728 65.368V64.152ZM249.888 68.888C249.888 68.536 249.781 68.2587 249.568 68.056C249.355 67.8427 249.072 67.736 248.72 67.736H246.752V71.8H248.704C249.109 71.8 249.408 71.7093 249.6 71.528C249.792 71.336 249.888 71.0373 249.888 70.632V68.888Z" fill="black"/>
<path id="0_2" d="M302.527 70.28C302.527 71.1653 302.282 71.8427 301.791 72.312C301.311 72.7707 300.661 73 299.839 73H299.519C298.698 73 298.042 72.7707 297.551 72.312C297.071 71.8427 296.831 71.1653 296.831 70.28V64.52C296.831 63.624 297.071 62.9467 297.551 62.488C298.031 62.0293 298.687 61.8 299.519 61.8H299.839C300.671 61.8 301.327 62.0293 301.807 62.488C302.287 62.9467 302.527 63.624 302.527 64.52V70.28ZM301.167 64.216C301.167 63.8853 301.039 63.6027 300.783 63.368C300.538 63.1227 300.223 63 299.839 63H299.519C299.135 63 298.815 63.1227 298.559 63.368C298.314 63.6027 298.191 63.8853 298.191 64.216V68.552L301.167 64.216ZM298.191 70.584C298.191 70.9147 298.314 71.2027 298.559 71.448C298.815 71.6827 299.135 71.8 299.519 71.8H299.839C300.223 71.8 300.538 71.6827 300.783 71.448C301.039 71.2027 301.167 70.9147 301.167 70.584V66.264L298.191 70.584Z" fill="black"/>
</g>
</g>
</g>
</g>
<g id="Background Color">
<rect width="694" height="518" transform="translate(0 130)" fill="black"/>
<g id="color label_2">
<g id="background hex">
<path id="Background" d="M23.28 164.472C23.28 165.389 23.0667 166.04 22.64 166.424C22.224 166.808 21.5307 167 20.56 167H17.36V155.8H20.368C21.3173 155.8 22.0107 155.992 22.448 156.376C22.896 156.76 23.12 157.4 23.12 158.296V159.208C23.12 160.029 22.8267 160.648 22.24 161.064C22.9333 161.448 23.28 162.104 23.28 163.032V164.472ZM21.728 158.152C21.728 157.747 21.632 157.453 21.44 157.272C21.2587 157.091 20.9653 157 20.56 157H18.752V160.536H20.56C20.8907 160.536 21.168 160.429 21.392 160.216C21.616 160.003 21.728 159.72 21.728 159.368V158.152ZM21.888 162.888C21.888 162.536 21.7813 162.259 21.568 162.056C21.3547 161.843 21.072 161.736 20.72 161.736H18.752V165.8H20.704C21.1093 165.8 21.408 165.709 21.6 165.528C21.792 165.336 21.888 165.037 21.888 164.632V162.888ZM31.3126 167C31.174 167 31.0193 166.957 30.8486 166.872C30.6886 166.787 30.55 166.669 30.4326 166.52C30.1873 166.84 29.862 167 29.4566 167H28.0326C27.222 167 26.63 166.84 26.2566 166.52C25.894 166.189 25.7126 165.629 25.7126 164.84V164.52C25.7126 162.867 26.4913 162.04 28.0486 162.04H30.0326V161.24C30.0326 160.909 29.9313 160.653 29.7286 160.472C29.526 160.291 29.2273 160.2 28.8326 160.2H26.3526V159H28.6726C29.6006 159 30.2833 159.203 30.7206 159.608C31.1686 160.013 31.3926 160.664 31.3926 161.56V165.4C31.3926 165.56 31.4513 165.683 31.5686 165.768C31.6966 165.843 31.9046 165.88 32.1926 165.88V167H31.3126ZM29.2966 165.8C29.6166 165.8 29.8193 165.725 29.9046 165.576C29.99 165.427 30.0326 165.235 30.0326 165V163.24H28.0326C27.7553 163.24 27.526 163.331 27.3446 163.512C27.1633 163.693 27.0726 163.923 27.0726 164.2V165C27.0726 165.277 27.1366 165.48 27.2646 165.608C27.3926 165.736 27.5953 165.8 27.8726 165.8H29.2966ZM37.9213 167C36.9826 167 36.2946 166.803 35.8573 166.408C35.4199 166.003 35.2013 165.347 35.2013 164.44V161.56C35.2013 160.664 35.4199 160.013 35.8573 159.608C36.3053 159.203 36.9933 159 37.9213 159H39.9853V160.2H37.7613C37.3666 160.2 37.0679 160.291 36.8653 160.472C36.6626 160.653 36.5613 160.909 36.5613 161.24V164.76C36.5613 165.091 36.6626 165.347 36.8653 165.528C37.0679 165.709 37.3666 165.8 37.7613 165.8H39.9853V167H37.9213ZM44.8179 163.576V167H43.4579V155.8H44.8179V161.848L47.3299 159H49.0419L46.2579 162.152L49.2659 167H47.5859L45.2339 163.096L44.8179 163.576ZM58.0345 167.56C58.0345 168.285 57.8158 168.824 57.3785 169.176C56.9518 169.539 56.2798 169.72 55.3625 169.72H52.0345V168.52H55.5225C55.9065 168.52 56.1945 168.445 56.3865 168.296C56.5785 168.147 56.6745 167.955 56.6745 167.72V167.208C56.6745 166.963 56.5785 166.771 56.3865 166.632C56.1945 166.483 55.9065 166.408 55.5225 166.408H52.7545V164.2C52.4025 164.008 52.1412 163.731 51.9705 163.368C51.7998 163.005 51.7145 162.536 51.7145 161.96V161.56C51.7145 160.664 51.9332 160.013 52.3705 159.608C52.8185 159.203 53.5065 159 54.4345 159H57.7945V161.96C57.7945 162.76 57.5758 163.389 57.1385 163.848C56.7012 164.296 56.1198 164.52 55.3945 164.52H54.1145V165.208H55.3625C56.2798 165.208 56.9518 165.389 57.3785 165.752C57.8158 166.104 58.0345 166.643 58.0345 167.368V167.56ZM55.3945 163.32C55.7252 163.32 55.9758 163.213 56.1465 163C56.3172 162.787 56.4132 162.563 56.4345 162.328V160.2H54.2745C53.8798 160.2 53.5812 160.291 53.3785 160.472C53.1758 160.653 53.0745 160.909 53.0745 161.24V162.28C53.0745 162.611 53.1758 162.867 53.3785 163.048C53.5812 163.229 53.8798 163.32 54.2745 163.32H55.3945ZM61.9711 165.8V160.2H60.8031V159H63.2511V159.432C63.6031 159.144 64.0298 159 64.5311 159H66.1791V160.28H64.3711C64.0298 160.28 63.7738 160.392 63.6031 160.616C63.4325 160.829 63.3418 161.048 63.3311 161.272V165.8H65.0751V167H60.8031V165.8H61.9711ZM75.1398 164.44C75.1398 165.336 74.9158 165.987 74.4678 166.392C74.0304 166.797 73.3478 167 72.4198 167H71.8918C70.9638 167 70.2758 166.797 69.8278 166.392C69.3904 165.987 69.1718 165.336 69.1718 164.44V161.56C69.1718 160.664 69.3904 160.013 69.8278 159.608C70.2758 159.203 70.9638 159 71.8918 159H72.4198C73.3478 159 74.0304 159.203 74.4678 159.608C74.9158 160.013 75.1398 160.664 75.1398 161.56V164.44ZM73.7798 161.24C73.7798 160.909 73.6784 160.653 73.4758 160.472C73.2731 160.291 72.9744 160.2 72.5798 160.2H71.7318C71.3371 160.2 71.0384 160.291 70.8358 160.472C70.6331 160.653 70.5318 160.909 70.5318 161.24V164.76C70.5318 165.091 70.6331 165.347 70.8358 165.528C71.0384 165.709 71.3371 165.8 71.7318 165.8H72.5798C72.9744 165.8 73.2731 165.709 73.4758 165.528C73.6784 165.347 73.7798 165.091 73.7798 164.76V161.24ZM82.3564 166.632C82.0044 166.877 81.5777 167 81.0764 167H80.5324C79.6684 167 79.023 166.797 78.5964 166.392C78.1804 165.987 77.9724 165.336 77.9724 164.44V159H79.3324V164.76C79.3324 165.08 79.423 165.336 79.6044 165.528C79.7964 165.709 80.0524 165.8 80.3724 165.8H81.2364C81.5777 165.8 81.8284 165.715 81.9884 165.544C82.159 165.373 82.255 165.181 82.2764 164.968V159H83.6364V167H82.3564V166.632ZM87.797 159V159.384C88.1277 159.128 88.5543 159 89.077 159H89.813C90.677 159 91.317 159.203 91.733 159.608C92.1597 160.013 92.373 160.664 92.373 161.56V167H91.013V161.24C91.013 160.92 90.917 160.669 90.725 160.488C90.5437 160.296 90.293 160.2 89.973 160.2H88.917C88.565 160.2 88.3037 160.296 88.133 160.488C87.9623 160.669 87.877 160.867 87.877 161.08V167H86.517V159H87.797ZM99.7656 166.632C99.4136 166.877 98.987 167 98.4856 167H97.8296C96.891 167 96.203 166.803 95.7656 166.408C95.3283 166.003 95.1096 165.347 95.1096 164.44V161.56C95.1096 160.664 95.3283 160.013 95.7656 159.608C96.2136 159.203 96.9016 159 97.8296 159H99.6856V155.8H101.046V167H99.7656V166.632ZM98.6456 165.8C98.9976 165.8 99.259 165.709 99.4296 165.528C99.6003 165.336 99.6856 165.133 99.6856 164.92V160.2H97.6696C97.275 160.2 96.9763 160.291 96.7736 160.472C96.571 160.653 96.4696 160.909 96.4696 161.24V164.76C96.4696 165.091 96.571 165.347 96.7736 165.528C96.9763 165.709 97.275 165.8 97.6696 165.8H98.6456Z" fill="#FF0000"/>
<path id="#000000" d="M220.713 167V162.68H218.793V167H216.873V162.68H215.193V160.88H216.873V156.08H215.193V154.28H216.873V150.2H218.793V154.28H220.713V150.2H222.633V154.28H224.313V156.08H222.633V160.88H224.313V162.68H222.633V167H220.713ZM218.793 160.88H220.713V156.08H218.793V160.88ZM236.986 162.92C236.986 164.248 236.618 165.264 235.882 165.968C235.162 166.656 234.186 167 232.954 167H232.474C231.242 167 230.258 166.656 229.522 165.968C228.802 165.264 228.442 164.248 228.442 162.92V154.28C228.442 152.936 228.802 151.92 229.522 151.232C230.242 150.544 231.226 150.2 232.474 150.2H232.954C234.202 150.2 235.186 150.544 235.906 151.232C236.626 151.92 236.986 152.936 236.986 154.28V162.92ZM234.946 153.824C234.946 153.328 234.754 152.904 234.37 152.552C234.002 152.184 233.53 152 232.954 152H232.474C231.898 152 231.418 152.184 231.034 152.552C230.666 152.904 230.482 153.328 230.482 153.824V160.328L234.946 153.824ZM230.482 163.376C230.482 163.872 230.666 164.304 231.034 164.672C231.418 165.024 231.898 165.2 232.474 165.2H232.954C233.53 165.2 234.002 165.024 234.37 164.672C234.754 164.304 234.946 163.872 234.946 163.376V156.896L230.482 163.376ZM249.947 162.92C249.947 164.248 249.579 165.264 248.843 165.968C248.123 166.656 247.147 167 245.915 167H245.435C244.203 167 243.219 166.656 242.483 165.968C241.763 165.264 241.403 164.248 241.403 162.92V154.28C241.403 152.936 241.763 151.92 242.483 151.232C243.203 150.544 244.187 150.2 245.435 150.2H245.915C247.163 150.2 248.147 150.544 248.867 151.232C249.587 151.92 249.947 152.936 249.947 154.28V162.92ZM247.907 153.824C247.907 153.328 247.715 152.904 247.331 152.552C246.963 152.184 246.491 152 245.915 152H245.435C244.859 152 244.379 152.184 243.995 152.552C243.627 152.904 243.443 153.328 243.443 153.824V160.328L247.907 153.824ZM243.443 163.376C243.443 163.872 243.627 164.304 243.995 164.672C244.379 165.024 244.859 165.2 245.435 165.2H245.915C246.491 165.2 246.963 165.024 247.331 164.672C247.715 164.304 247.907 163.872 247.907 163.376V156.896L243.443 163.376ZM262.908 162.92C262.908 164.248 262.54 165.264 261.804 165.968C261.084 166.656 260.108 167 258.876 167H258.396C257.164 167 256.18 166.656 255.444 165.968C254.724 165.264 254.364 164.248 254.364 162.92V154.28C254.364 152.936 254.724 151.92 255.444 151.232C256.164 150.544 257.148 150.2 258.396 150.2H258.876C260.124 150.2 261.108 150.544 261.828 151.232C262.548 151.92 262.908 152.936 262.908 154.28V162.92ZM260.868 153.824C260.868 153.328 260.676 152.904 260.292 152.552C259.924 152.184 259.452 152 258.876 152H258.396C257.82 152 257.34 152.184 256.956 152.552C256.588 152.904 256.404 153.328 256.404 153.824V160.328L260.868 153.824ZM256.404 163.376C256.404 163.872 256.588 164.304 256.956 164.672C257.34 165.024 257.82 165.2 258.396 165.2H258.876C259.452 165.2 259.924 165.024 260.292 164.672C260.676 164.304 260.868 163.872 260.868 163.376V156.896L256.404 163.376ZM275.869 162.92C275.869 164.248 275.501 165.264 274.765 165.968C274.045 166.656 273.069 167 271.837 167H271.357C270.125 167 269.141 166.656 268.405 165.968C267.685 165.264 267.325 164.248 267.325 162.92V154.28C267.325 152.936 267.685 151.92 268.405 151.232C269.125 150.544 270.109 150.2 271.357 150.2H271.837C273.085 150.2 274.069 150.544 274.789 151.232C275.509 151.92 275.869 152.936 275.869 154.28V162.92ZM273.829 153.824C273.829 153.328 273.637 152.904 273.253 152.552C272.885 152.184 272.413 152 271.837 152H271.357C270.781 152 270.301 152.184 269.917 152.552C269.549 152.904 269.365 153.328 269.365 153.824V160.328L273.829 153.824ZM269.365 163.376C269.365 163.872 269.549 164.304 269.917 164.672C270.301 165.024 270.781 165.2 271.357 165.2H271.837C272.413 165.2 272.885 165.024 273.253 164.672C273.637 164.304 273.829 163.872 273.829 163.376V156.896L269.365 163.376ZM288.83 162.92C288.83 164.248 288.462 165.264 287.726 165.968C287.006 166.656 286.03 167 284.798 167H284.318C283.086 167 282.102 166.656 281.366 165.968C280.646 165.264 280.286 164.248 280.286 162.92V154.28C280.286 152.936 280.646 151.92 281.366 151.232C282.086 150.544 283.07 150.2 284.318 150.2H284.798C286.046 150.2 287.03 150.544 287.75 151.232C288.47 151.92 288.83 152.936 288.83 154.28V162.92ZM286.79 153.824C286.79 153.328 286.598 152.904 286.214 152.552C285.846 152.184 285.374 152 284.798 152H284.318C283.742 152 283.262 152.184 282.878 152.552C282.51 152.904 282.326 153.328 282.326 153.824V160.328L286.79 153.824ZM282.326 163.376C282.326 163.872 282.51 164.304 282.878 164.672C283.262 165.024 283.742 165.2 284.318 165.2H284.798C285.374 165.2 285.846 165.024 286.214 164.672C286.598 164.304 286.79 163.872 286.79 163.376V156.896L282.326 163.376ZM301.791 162.92C301.791 164.248 301.423 165.264 300.687 165.968C299.967 166.656 298.991 167 297.759 167H297.279C296.047 167 295.063 166.656 294.327 165.968C293.607 165.264 293.247 164.248 293.247 162.92V154.28C293.247 152.936 293.607 151.92 294.327 151.232C295.047 150.544 296.031 150.2 297.279 150.2H297.759C299.007 150.2 299.991 150.544 300.711 151.232C301.431 151.92 301.791 152.936 301.791 154.28V162.92ZM299.751 153.824C299.751 153.328 299.559 152.904 299.175 152.552C298.807 152.184 298.335 152 297.759 152H297.279C296.703 152 296.223 152.184 295.839 152.552C295.471 152.904 295.287 153.328 295.287 153.824V160.328L299.751 153.824ZM295.287 163.376C295.287 163.872 295.471 164.304 295.839 164.672C296.223 165.024 296.703 165.2 297.279 165.2H297.759C298.335 165.2 298.807 165.024 299.175 164.672C299.559 164.304 299.751 163.872 299.751 163.376V156.896L295.287 163.376Z" fill="#FF0000"/>
</g>
<g id="rgb values_2">
<g id="value r_2">
<path id="R_2" d="M18.512 198.36V203H17.12V191.8H20.128C21.0347 191.8 21.7173 192.003 22.176 192.408C22.6453 192.803 22.88 193.432 22.88 194.296V195.832C22.88 197.037 22.4 197.789 21.44 198.088L23.664 203H22.144L20.08 198.36H18.512ZM21.488 194.152C21.488 193.747 21.392 193.453 21.2 193.272C21.0187 193.091 20.7253 193 20.32 193H18.512V197.16H20.32C20.7253 197.16 21.0187 197.069 21.2 196.888C21.392 196.696 21.488 196.397 21.488 195.992V194.152Z" fill="#FF0000"/>
<path id="0_3" d="M74.5274 200.28C74.5274 201.165 74.282 201.843 73.7914 202.312C73.3114 202.771 72.6607 203 71.8394 203H71.5194C70.698 203 70.042 202.771 69.5514 202.312C69.0714 201.843 68.8314 201.165 68.8314 200.28V194.52C68.8314 193.624 69.0714 192.947 69.5514 192.488C70.0314 192.029 70.6874 191.8 71.5194 191.8H71.8394C72.6714 191.8 73.3274 192.029 73.8074 192.488C74.2874 192.947 74.5274 193.624 74.5274 194.52V200.28ZM73.1674 194.216C73.1674 193.885 73.0394 193.603 72.7834 193.368C72.538 193.123 72.2234 193 71.8394 193H71.5194C71.1354 193 70.8154 193.123 70.5594 193.368C70.314 193.603 70.1914 193.885 70.1914 194.216V198.552L73.1674 194.216ZM70.1914 200.584C70.1914 200.915 70.314 201.203 70.5594 201.448C70.8154 201.683 71.1354 201.8 71.5194 201.8H71.8394C72.2234 201.8 72.538 201.683 72.7834 201.448C73.0394 201.203 73.1674 200.915 73.1674 200.584V196.264L70.1914 200.584Z" fill="#FF0000"/>
</g>
<circle id="circle a_2" cx="103" cy="198" r="1.5" stroke="#FF0000"/>
<g id="value g_2">
<path id="G_2" d="M134.384 203C133.456 203 132.741 202.776 132.24 202.328C131.749 201.869 131.504 201.187 131.504 200.28V194.52C131.504 193.613 131.749 192.936 132.24 192.488C132.741 192.029 133.456 191.8 134.384 191.8H136.64V193.016H134.224C133.829 193.016 133.509 193.133 133.264 193.368C133.019 193.603 132.896 193.885 132.896 194.216V200.584C132.896 200.915 133.019 201.197 133.264 201.432C133.509 201.667 133.829 201.784 134.224 201.784H135.792V198.312H134.4V197.112H137.12V203H134.384Z" fill="#FF0000"/>
<path id="0_4" d="M188.527 200.28C188.527 201.165 188.282 201.843 187.791 202.312C187.311 202.771 186.661 203 185.839 203H185.519C184.698 203 184.042 202.771 183.551 202.312C183.071 201.843 182.831 201.165 182.831 200.28V194.52C182.831 193.624 183.071 192.947 183.551 192.488C184.031 192.029 184.687 191.8 185.519 191.8H185.839C186.671 191.8 187.327 192.029 187.807 192.488C188.287 192.947 188.527 193.624 188.527 194.52V200.28ZM187.167 194.216C187.167 193.885 187.039 193.603 186.783 193.368C186.538 193.123 186.223 193 185.839 193H185.519C185.135 193 184.815 193.123 184.559 193.368C184.314 193.603 184.191 193.885 184.191 194.216V198.552L187.167 194.216ZM184.191 200.584C184.191 200.915 184.314 201.203 184.559 201.448C184.815 201.683 185.135 201.8 185.519 201.8H185.839C186.223 201.8 186.538 201.683 186.783 201.448C187.039 201.203 187.167 200.915 187.167 200.584V196.264L184.191 200.584Z" fill="#FF0000"/>
</g>
<circle id="circle b_2" cx="217" cy="198" r="1.5" stroke="#FF0000"/>
<g id="value b_2">
<path id="B_2" d="M251.28 200.472C251.28 201.389 251.067 202.04 250.64 202.424C250.224 202.808 249.531 203 248.56 203H245.36V191.8H248.368C249.317 191.8 250.011 191.992 250.448 192.376C250.896 192.76 251.12 193.4 251.12 194.296V195.208C251.12 196.029 250.827 196.648 250.24 197.064C250.933 197.448 251.28 198.104 251.28 199.032V200.472ZM249.728 194.152C249.728 193.747 249.632 193.453 249.44 193.272C249.259 193.091 248.965 193 248.56 193H246.752V196.536H248.56C248.891 196.536 249.168 196.429 249.392 196.216C249.616 196.003 249.728 195.72 249.728 195.368V194.152ZM249.888 198.888C249.888 198.536 249.781 198.259 249.568 198.056C249.355 197.843 249.072 197.736 248.72 197.736H246.752V201.8H248.704C249.109 201.8 249.408 201.709 249.6 201.528C249.792 201.336 249.888 201.037 249.888 200.632V198.888Z" fill="#FF0000"/>
<path id="0_5" d="M302.527 200.28C302.527 201.165 302.282 201.843 301.791 202.312C301.311 202.771 300.661 203 299.839 203H299.519C298.698 203 298.042 202.771 297.551 202.312C297.071 201.843 296.831 201.165 296.831 200.28V194.52C296.831 193.624 297.071 192.947 297.551 192.488C298.031 192.029 298.687 191.8 299.519 191.8H299.839C300.671 191.8 301.327 192.029 301.807 192.488C302.287 192.947 302.527 193.624 302.527 194.52V200.28ZM301.167 194.216C301.167 193.885 301.039 193.603 300.783 193.368C300.538 193.123 300.223 193 299.839 193H299.519C299.135 193 298.815 193.123 298.559 193.368C298.314 193.603 298.191 193.885 298.191 194.216V198.552L301.167 194.216ZM298.191 200.584C298.191 200.915 298.314 201.203 298.559 201.448C298.815 201.683 299.135 201.8 299.519 201.8H299.839C300.223 201.8 300.538 201.683 300.783 201.448C301.039 201.203 301.167 200.915 301.167 200.584V196.264L298.191 200.584Z" fill="#FF0000"/>
</g>
</g>
</g>
</g>
</g>
<g id="Contrast ratio">
<path id="5.25:1" d="M52.96 605.096C52.96 609.965 51.7867 613.515 49.44 615.744C47.0933 617.915 43.28 619 38 619H26.472V612.4H38.792C41.0213 612.4 42.664 611.901 43.72 610.904C44.776 609.848 45.304 608.205 45.304 605.976V594.8C45.304 592.864 44.7173 591.339 43.544 590.224C42.3707 589.051 40.816 588.464 38.88 588.464H27.352V557.4H51.64V564H34.832V581.864H38.44C42.9573 581.864 46.5067 582.979 49.088 585.208C51.6693 587.437 52.96 590.899 52.96 595.592V605.096ZM91.6834 610.2V619H82.8834V610.2H91.6834ZM134.367 591.192C136.244 588.493 137.506 586.587 138.151 585.472C138.855 584.299 139.324 583.125 139.559 581.952C139.794 580.779 139.911 579.077 139.911 576.848V570.688C139.911 568.869 139.236 567.315 137.887 566.024C136.538 564.733 134.778 564.088 132.607 564.088H122.047V557.4H131.727C136.831 557.4 140.732 558.661 143.431 561.184C146.188 563.648 147.567 567.373 147.567 572.36V576.056C147.567 578.989 147.362 581.365 146.951 583.184C146.54 585.003 145.954 586.616 145.191 588.024C144.428 589.432 143.167 591.397 141.407 593.92L128.383 612.312H149.327V619H120.287V611.256L134.367 591.192ZM195.53 605.096C195.53 609.965 194.357 613.515 192.01 615.744C189.664 617.915 185.85 619 180.57 619H169.042V612.4H181.362C183.592 612.4 185.234 611.901 186.29 610.904C187.346 609.848 187.874 608.205 187.874 605.976V594.8C187.874 592.864 187.288 591.339 186.114 590.224C184.941 589.051 183.386 588.464 181.45 588.464H169.922V557.4H194.21V564H177.402V581.864H181.01C185.528 581.864 189.077 582.979 191.658 585.208C194.24 587.437 195.53 590.899 195.53 595.592V605.096ZM234.254 575V583.8H225.454V575H234.254ZM234.254 610.2V619H225.454V610.2H234.254ZM275.001 612.4V564.352L262.593 568.928V561.8L274.121 557.4H282.481V612.4H292.073V619H263.473V612.4H275.001Z" fill="#FF0000"/>
<g id="Rating">
<path id="AA" d="M526 587L529.592 598.056H541.217L531.812 604.889L535.405 615.944L526 609.111L516.595 615.944L520.188 604.889L510.783 598.056H522.408L526 587Z" fill="#FF0000"/>
<path id="AA_2" d="M566 587L569.592 598.056H581.217L571.812 604.889L575.405 615.944L566 609.111L556.595 615.944L560.188 604.889L550.783 598.056H562.408L566 587Z" fill="#FF0000"/>
<path id="AAA" d="M606 587L609.592 598.056H621.217L611.812 604.889L615.405 615.944L606 609.111L596.595 615.944L600.188 604.889L590.783 598.056H602.408L606 587Z" fill="#FF0000"/>
<path id="AAA_2" d="M646 590.236L648.641 598.365L648.866 599.056H649.592H658.139L651.225 604.08L650.637 604.507L650.861 605.198L653.502 613.326L646.588 608.302L646 607.875L645.412 608.302L638.498 613.326L641.139 605.198L641.363 604.507L640.775 604.08L633.861 599.056H642.408H643.134L643.359 598.365L646 590.236Z" stroke="#FF0000" stroke-width="2"/>
</g>
</g>
</g>
</svg>
